<svg id="Layer_1" data-name="Layer 1" xmlns="http://www.w3.org/2000/svg" width="600" height="600" viewBox="0 0 600 600"><defs><style>.cls-1{fill:#fb9209;}.cls-2{fill:#1f2532;}.cls-3{fill:#fff;}</style></defs><title>privat_snak1</title><path class="cls-1" d="M92.82,310.49l.8,125.8s1.06,9.31,10.11,10.38h59.84l1.06,38.47v1.42l64.9-39.63,340.65.07s12.33-3.08,12.33-10.62V304.85s1.37-10.61-13.36-12.67L117,293.89Z"/><path class="cls-2" d="M118.44,294.28,57,334.57l-1,.6V294.28H17.45s-9.8-4.19-8.32-12.54L9,152.15S7,141.72,19.31,141.72H567s15.57-3.87,15.57,12.68V281.68s2.67,10.86-10.48,10.9S118.44,294.28,118.44,294.28Z"/><path class="cls-3" d="M82.73,158.69h37.61q14.61,0,22.63,7.83t8,22.21a45.14,45.14,0,0,1-2.65,15q-2.64,7.55-11.14,13.1t-21.35,5.56h-8.31v41.85H82.73ZM107.55,179v22.63H113q6,0,9.61-3.14t3.58-8.81c0-3.59-.92-6.26-2.75-8s-4.59-2.65-8.25-2.65Z"/><path class="cls-3" d="M168.6,158.69h37.92q12.85,0,20.85,6.66t8,18.92a26.41,26.41,0,0,1-5.71,17.14q-5.71,7.08-17.14,11.16,14.3,2.28,17.71,18.17l7.18,33.52H210.45l-3.94-29.21q-1.06-7.41-3.52-10.82t-7.53-3.41H193.2v43.44H168.6Zm24.6,20.51v22.62h5.37q5.75,0,8.78-3.4a12.5,12.5,0,0,0,3-8.63c0-3.53-.89-6.18-2.65-7.95s-4.44-2.64-8-2.64Z"/><path class="cls-3" d="M255.53,158.69h24.82V264.26H255.53Z"/><path class="cls-3" d="M297.61,158.69H324l11.65,69.4,12-69.4h26.79L347.72,264.26H323.35Z"/><path class="cls-3" d="M405.65,158.69h24.47l27.8,105.57H431.13l-3.75-21H407.13l-3.85,21H378.07Zm11.74,28.83-6.78,36.86H424Z"/><path class="cls-3" d="M459.93,158.69h66.68V180.1H505.19v84.16h-24.6V180.1H459.93Z"/><path class="cls-3" d="M158.52,383.07q12.18,11.35,23,11.35a13.56,13.56,0,0,0,9.46-3.56,11.17,11.17,0,0,0,3.94-8.62,10.67,10.67,0,0,0-2.8-7.27q-2.88-3.18-10.74-7.14-11.1-5.49-16.95-12.21t-5.91-17.09a29.83,29.83,0,0,1,9.23-22.19q9.23-9,24.45-9,10.44,0,21.72,5.6v25.2q-10-9.6-19.15-9.61a12,12,0,0,0-7.87,2.73,8.23,8.23,0,0,0-3.33,6.58,8.92,8.92,0,0,0,2.72,6.51q2.66,2.73,9.84,5.9,11.88,5.31,18,12.12t6.13,18.54a33.84,33.84,0,0,1-10.55,25.05A35.4,35.4,0,0,1,184,416.29q-11.82,0-25.43-7.11Z"/><path class="cls-3" d="M240.07,309.05h25.05l12,33.45q5.37,14.91,8.25,25.81h1.28l-.6-17.86v-41.4H309.7V414.63h-25l-12-33.45q-5.37-14.91-8.25-25.89h-1.36l.61,17.86v41.48H240.07Z"/><path class="cls-3" d="M353.37,309.05h24.46l27.81,105.58h-26.8l-3.75-21H354.85l-3.86,21h-25.2Zm11.74,28.84-6.78,36.85h13.38Z"/><path class="cls-3" d="M421.2,309.05h24.59v38.07l18.62-38.07h24.37l-20.55,36L492,414.63H464.4l-12-42-6.63,11.6v30.43H421.2Z"/></svg>
